<svg width="75" height="50" viewBox="0 0 75 50" fill="none" xmlns="http://www.w3.org/2000/svg">
<path d="M0.5 3C0.5 1.61929 1.61929 0.5 3 0.5H72C73.3807 0.5 74.5 1.61929 74.5 3V47C74.5 48.3807 73.3807 49.5 72 49.5H3C1.61929 49.5 0.5 48.3807 0.5 47V3Z" fill="#E0E0E0" stroke="#7D7D7D"/>
<path d="M20 35V32H47.5V35H20ZM20 26.5V23.5H47.5V26.5H20ZM20 18V15H47.5V18H20ZM54.5 35C54.0667 35 53.7083 34.8583 53.425 34.575C53.1417 34.2917 53 33.9333 53 33.5C53 33.0667 53.1417 32.7083 53.425 32.425C53.7083 32.1417 54.0667 32 54.5 32C54.9333 32 55.2917 32.1417 55.575 32.425C55.8583 32.7083 56 33.0667 56 33.5C56 33.9333 55.8583 34.2917 55.575 34.575C55.2917 34.8583 54.9333 35 54.5 35ZM54.5 26.5C54.0667 26.5 53.7083 26.3583 53.425 26.075C53.1417 25.7917 53 25.4333 53 25C53 24.5667 53.1417 24.2083 53.425 23.925C53.7083 23.6417 54.0667 23.5 54.5 23.5C54.9333 23.5 55.2917 23.6417 55.575 23.925C55.8583 24.2083 56 24.5667 56 25C56 25.4333 55.8583 25.7917 55.575 26.075C55.2917 26.3583 54.9333 26.5 54.5 26.5ZM54.5 18C54.0667 18 53.7083 17.8583 53.425 17.575C53.1417 17.2917 53 16.9333 53 16.5C53 16.0667 53.1417 15.7083 53.425 15.425C53.7083 15.1417 54.0667 15 54.5 15C54.9333 15 55.2917 15.1417 55.575 15.425C55.8583 15.7083 56 16.0667 56 16.5C56 16.9333 55.8583 17.2917 55.575 17.575C55.2917 17.8583 54.9333 18 54.5 18Z" fill="#7D7D7D"/>
</svg>
